<svg xmlns="http://www.w3.org/2000/svg" xmlns:xlink="http://www.w3.org/1999/xlink" viewBox="0 0 34 42.5" version="1.1" x="0px" y="0px"><title>Group 11</title><desc>Created with Sketch.</desc><g stroke="none" stroke-width="1" fill="none" fill-rule="evenodd"><g transform="translate(-178.000000, -328.000000)" fill="#000000"><g transform="translate(178.000000, 328.000000)"><path d="M17,33.93 C7.665,33.93 0.07,26.335 0.07,17 C0.07,7.665 7.665,0.07 17,0.07 C26.335,0.07 33.93,7.665 33.93,17 C33.93,26.335 26.335,33.93 17,33.93 L17,33.93 Z M17,1.93 C8.69,1.93 1.93,8.69 1.93,17 C1.93,25.31 8.69,32.07 17,32.07 C25.31,32.07 32.07,25.31 32.07,17 C32.07,8.69 25.31,1.93 17,1.93 L17,1.93 Z"/><path d="M17,26.315 L7.342,16.658 L8.658,15.342 L17,23.685 L25.342,15.342 L26.658,16.658 L17,26.315"/><path d="M16,8 L18,8 L18,25 L16,25 L16,8 Z"/></g></g></g><text x="0" y="49" fill="#000000" font-size="5px" font-weight="bold" font-family="'Helvetica Neue', Helvetica, Arial-Unicode, Arial, Sans-serif">Created by Bluetip Design</text><text x="0" y="54" fill="#000000" font-size="5px" font-weight="bold" font-family="'Helvetica Neue', Helvetica, Arial-Unicode, Arial, Sans-serif">from the Noun Project</text></svg>