<?xml version="1.0" encoding="UTF-8" standalone="no"?>
<svg
   viewBox="0 0 34 42.5"
   version="1.1"
   x="0px"
   y="0px"
   id="svg22"
   sodipodi:docname="upvote_orange.svg"
   inkscape:version="1.1.1 (3bf5ae0d25, 2021-09-20)"
   xmlns:inkscape="http://www.inkscape.org/namespaces/inkscape"
   xmlns:sodipodi="http://sodipodi.sourceforge.net/DTD/sodipodi-0.dtd"
   xmlns="http://www.w3.org/2000/svg"
   xmlns:svg="http://www.w3.org/2000/svg">
  <defs
     id="defs26" />
  <sodipodi:namedview
     id="namedview24"
     pagecolor="#ffffff"
     bordercolor="#666666"
     borderopacity="1.0"
     inkscape:pageshadow="2"
     inkscape:pageopacity="0.0"
     inkscape:pagecheckerboard="0"
     showgrid="false"
     inkscape:zoom="14.823529"
     inkscape:cx="5.1944444"
     inkscape:cy="21.25"
     inkscape:window-width="1920"
     inkscape:window-height="1021"
     inkscape:window-x="0"
     inkscape:window-y="0"
     inkscape:window-maximized="1"
     inkscape:current-layer="svg22" />
  <title
     id="title2">Group 12</title>
  <desc
     id="desc4">Created with Sketch.</desc>
  <g
     stroke="none"
     stroke-width="1"
     fill="none"
     fill-rule="evenodd"
     id="g16">
    <g
       transform="translate(-128.000000, -328.000000)"
       fill="#000000"
       id="g14">
      <g
         transform="translate(128.000000, 328.000000)"
         id="g12">
        <path
           d="M17,33.93 C7.665,33.93 0.07,26.335 0.07,17 C0.07,7.665 7.665,0.07 17,0.07 C26.335,0.07 33.93,7.665 33.93,17 C33.93,26.335 26.335,33.93 17,33.93 L17,33.93 Z M17,1.93 C8.69,1.93 1.93,8.69 1.93,17 C1.93,25.31 8.69,32.07 17,32.07 C25.31,32.07 32.07,25.31 32.07,17 C32.07,8.69 25.31,1.93 17,1.93 L17,1.93 Z"
           id="path6"
           style="fill:#ffa9a1;fill-opacity:1" />
        <path
           d="M25.342,18.658 L17,10.315 L8.658,18.658 L7.342,17.342 L17,7.685 L26.658,17.342 L25.342,18.658"
           id="path8"
           style="fill:#ffa9a1;fill-opacity:1" />
        <path
           d="M16,9 L18,9 L18,26 L16,26 L16,9 Z"
           id="path10"
           style="fill:#ffa9a1;fill-opacity:1" />
      </g>
    </g>
  </g>
  <text
     x="0"
     y="49"
     fill="#000000"
     font-size="5px"
     font-weight="bold"
     font-family="'Helvetica Neue', Helvetica, Arial-Unicode, Arial, Sans-serif"
     id="text18">Created by Bluetip Design</text>
  <text
     x="0"
     y="54"
     fill="#000000"
     font-size="5px"
     font-weight="bold"
     font-family="'Helvetica Neue', Helvetica, Arial-Unicode, Arial, Sans-serif"
     id="text20">from the Noun Project</text>
</svg>
